<svg xmlns="http://www.w3.org/2000/svg" viewBox="0 0 42.0 36.0">
  <path d="M21.045,3.422C15.146,3.422 10.365,8.059 10.365,13.779V24.135H21.045C26.944,24.135 31.726,19.498 31.726,13.779C31.726,8.059 26.944,3.422 21.045,3.422Z" fill="#e52561"   />
  <path d="M5.044,32.47C4.894,32.47 4.761,32.417 4.658,32.317C4.554,32.216 4.5,32.088 4.5,31.942V27.469C4.5,27.326 4.553,27.196 4.655,27.093C4.759,26.989 4.893,26.933 5.044,26.933H6.572C7.186,26.933 7.717,27.069 8.151,27.336C8.584,27.603 8.913,27.953 9.132,28.376C9.348,28.796 9.457,29.241 9.457,29.702C9.457,30.162 9.348,30.609 9.132,31.027C8.913,31.451 8.584,31.801 8.151,32.067C7.717,32.335 7.186,32.47 6.572,32.47H5.044ZM6.488,31.452C6.868,31.452 7.204,31.377 7.486,31.228C7.769,31.08 7.983,30.881 8.137,30.618C8.291,30.357 8.369,30.049 8.369,29.702C8.369,29.354 8.291,29.047 8.137,28.785C7.981,28.523 7.769,28.323 7.486,28.175C7.204,28.027 6.868,27.951 6.488,27.951H5.595V31.452H6.488Z" fill="#020102"   />
  <path d="M15.603,32.47C15.454,32.47 15.32,32.417 15.216,32.317C15.113,32.216 15.058,32.088 15.058,31.942V28.78C15.058,28.637 15.111,28.507 15.214,28.404C15.317,28.3 15.451,28.244 15.603,28.244C15.754,28.244 15.893,28.297 15.995,28.398C16.099,28.498 16.153,28.631 16.153,28.78V31.942C16.153,32.089 16.096,32.219 15.989,32.319C15.883,32.417 15.75,32.47 15.601,32.47H15.603ZM15.588,27.905C15.429,27.905 15.285,27.847 15.171,27.737C15.058,27.628 14.999,27.488 14.999,27.333V27.304C14.999,27.149 15.058,27.01 15.171,26.9C15.284,26.79 15.429,26.732 15.588,26.732H15.633C15.792,26.732 15.936,26.79 16.05,26.9C16.163,27.009 16.222,27.149 16.222,27.304V27.333C16.222,27.488 16.163,27.627 16.05,27.737C15.937,27.847 15.792,27.905 15.633,27.905H15.588Z" fill="#020102"   />
  <path d="M13.544,28.209C13.396,28.209 13.262,28.26 13.156,28.359C13.049,28.46 12.992,28.59 12.992,28.736V28.768C12.992,28.768 12.992,28.776 12.992,28.78V30.744C12.992,31.237 12.554,31.458 12.144,31.458C11.699,31.458 11.314,31.249 11.314,30.754V28.735C11.314,28.591 11.26,28.461 11.156,28.361C11.052,28.26 10.92,28.207 10.77,28.207C10.62,28.207 10.488,28.259 10.382,28.358C10.275,28.458 10.218,28.588 10.218,28.735V30.828C10.218,31.121 10.279,31.395 10.401,31.641C10.526,31.895 10.709,32.098 10.945,32.245C11.183,32.393 11.463,32.467 11.78,32.467C12.118,32.467 12.412,32.42 12.625,32.228C12.794,32.076 12.883,31.886 12.932,31.884C12.98,31.883 12.988,31.913 12.992,31.94C13.005,32.101 13.046,32.214 13.149,32.314C13.253,32.415 13.386,32.467 13.536,32.467C13.686,32.467 13.817,32.416 13.923,32.317C14.031,32.216 14.088,32.086 14.088,31.94V30.678C14.088,30.678 14.088,30.675 14.088,30.673V28.733C14.088,28.588 14.033,28.458 13.93,28.358C13.826,28.258 13.694,28.205 13.544,28.205V28.209Z" fill="#020102"   />
  <path d="M24.67,32.47C24.556,32.47 24.447,32.443 24.346,32.391C24.249,32.341 24.168,32.274 24.106,32.193L24.102,32.187L21.528,28.711V31.944C21.528,32.09 21.471,32.22 21.364,32.321C21.258,32.418 21.125,32.471 20.976,32.471C20.828,32.471 20.694,32.418 20.59,32.318C20.486,32.218 20.432,32.089 20.432,31.944V27.672C20.432,27.487 20.5,27.326 20.634,27.193C20.767,27.061 20.938,26.99 21.128,26.99H21.226C21.382,26.99 21.609,27.041 21.804,27.287L21.807,27.291L24.369,30.62V27.524C24.369,27.381 24.422,27.251 24.524,27.148C24.627,27.044 24.761,26.989 24.913,26.989C25.064,26.989 25.197,27.043 25.303,27.146C25.409,27.249 25.465,27.378 25.465,27.524V31.795C25.465,31.979 25.392,32.146 25.255,32.274C25.118,32.404 24.951,32.47 24.761,32.47H24.67Z" fill="#e52561"   />
  <path d="M35.661,32.47C35.507,32.47 35.368,32.428 35.246,32.343C35.128,32.262 35.042,32.155 34.99,32.025L34.987,32.017L34.341,30.16L33.693,32.022V32.026C33.64,32.155 33.554,32.262 33.436,32.344C33.314,32.429 33.173,32.471 33.02,32.471C32.868,32.471 32.727,32.429 32.605,32.344C32.485,32.262 32.4,32.155 32.354,32.029L31.217,28.964C31.193,28.899 31.181,28.836 31.181,28.776C31.181,28.632 31.238,28.502 31.347,28.402C31.455,28.301 31.596,28.249 31.753,28.249C31.87,28.249 31.977,28.278 32.073,28.336C32.175,28.398 32.245,28.48 32.282,28.582L33.019,30.814L33.744,28.653C33.783,28.533 33.859,28.435 33.968,28.362C34.077,28.287 34.201,28.25 34.34,28.25C34.478,28.25 34.601,28.287 34.71,28.362C34.819,28.437 34.894,28.533 34.934,28.653L35.659,30.815L36.395,28.583C36.432,28.482 36.503,28.399 36.605,28.337C36.701,28.279 36.81,28.25 36.925,28.25C37.082,28.25 37.222,28.303 37.331,28.403C37.44,28.503 37.497,28.633 37.497,28.778C37.497,28.838 37.485,28.901 37.463,28.964L36.325,32.032C36.28,32.157 36.195,32.264 36.076,32.347C35.953,32.431 35.813,32.474 35.66,32.474L35.661,32.47Z" fill="#e52561"   />
  <path d="M18.667,32.47C17.821,32.47 17.355,32.055 17.355,31.301V29.212H17.31C17.17,29.212 17.045,29.162 16.952,29.067C16.861,28.974 16.813,28.857 16.813,28.729C16.813,28.6 16.862,28.475 16.955,28.384C17.049,28.292 17.171,28.245 17.31,28.245H17.355V27.699C17.355,27.548 17.413,27.417 17.52,27.317C17.625,27.219 17.758,27.167 17.904,27.167C18.056,27.167 18.192,27.22 18.294,27.319C18.396,27.42 18.451,27.55 18.451,27.699V28.245H19.107C19.247,28.245 19.369,28.292 19.463,28.382C19.557,28.474 19.607,28.592 19.607,28.727C19.607,28.862 19.559,28.973 19.467,29.066C19.373,29.161 19.25,29.211 19.109,29.211H18.452V31.242C18.452,31.402 18.558,31.565 18.687,31.573C18.841,31.582 19.272,31.557 19.394,31.622C19.495,31.674 19.601,31.806 19.603,31.949C19.604,32.134 19.502,32.287 19.32,32.38L19.316,32.382L19.312,32.385C19.089,32.485 18.92,32.471 18.67,32.471L18.667,32.47Z" fill="#020102"   />
  <path d="M21.045,8.049C17.781,8.049 15.136,10.614 15.136,13.779V19.508H21.045C24.309,19.508 26.954,16.943 26.954,13.779C26.954,10.614 24.309,8.049 21.045,8.049ZM21.045,16.337H18.405V13.777C18.405,12.364 19.586,11.217 21.045,11.217C22.504,11.217 23.685,12.363 23.685,13.777C23.685,15.192 22.504,16.337 21.045,16.337Z" fill="#ffffff"   />
  <path d="M28.577,28.111C27.336,28.111 26.33,29.086 26.33,30.29C26.33,31.493 27.336,32.468 28.577,32.468C29.818,32.468 30.824,31.493 30.824,30.29C30.824,29.086 29.818,28.111 28.577,28.111ZM28.577,31.461C27.91,31.461 27.368,30.936 27.368,30.288C27.368,29.641 27.91,29.116 28.577,29.116C29.245,29.116 29.786,29.641 29.786,30.288C29.786,30.936 29.245,31.461 28.577,31.461Z" fill="#e52561"   />
</svg>
