<svg xmlns="http://www.w3.org/2000/svg" viewBox="0 0 36.0 36.0">
  <path d="M10.8799,33.6C12.1005,33.6 13.0899,32.6105 13.0899,31.39C13.0899,30.1694 12.1005,29.18 10.8799,29.18C9.6594,29.18 8.6699,30.1694 8.6699,31.39C8.6699,32.6105 9.6594,33.6 10.8799,33.6Z" fill="#005abe"   />
  <path d="M24.1202,33.6C25.3407,33.6 26.3302,32.6105 26.3302,31.39C26.3302,30.1694 25.3407,29.18 24.1202,29.18C22.8996,29.18 21.9102,30.1694 21.9102,31.39C21.9102,32.6105 22.8996,33.6 24.1202,33.6Z" fill="#005abe"   />
  <path d="M1,4.48H2.94L3.38,6.29L4.44,10.66L7.97,27.42H27.2L30.73,9.77H7.97" fill="#00000000" stroke="#005abe" stroke-width="2.0" />
  <path d="M25.6202,21.82C30.8227,21.82 35.0402,17.6025 35.0402,12.4C35.0402,7.1975 30.8227,2.98 25.6202,2.98C20.4177,2.98 16.2002,7.1975 16.2002,12.4C16.2002,17.6025 20.4177,21.82 25.6202,21.82Z" fill="#ffdc00"   />
  <path d="M25.6203,21.7C30.7566,21.7 34.9203,17.5362 34.9203,12.4C34.9203,7.2637 30.7566,3.1 25.6203,3.1C20.4841,3.1 16.3203,7.2637 16.3203,12.4C16.3203,17.5362 20.4841,21.7 25.6203,21.7Z" fill="#00000000" stroke="#005abe" stroke-width="2.2" />
  <path d="M26.1762,17C25.0943,17 24.1721,16.8132 23.3975,16.4514C22.623,16.0895 22.0328,15.5642 21.6148,14.8872C21.1967,14.2101 21,13.4163 21,12.4825C21,11.5486 21.1967,10.8132 21.6025,10.1479C22.0082,9.4942 22.5615,8.9689 23.2623,8.5837C23.9631,8.1984 24.7623,8 25.6598,8C26.3361,8 26.9385,8.1051 27.4672,8.3035C27.9959,8.5136 28.4508,8.8055 28.832,9.179C29.2131,9.5642 29.5082,10.0195 29.7049,10.5681C29.9016,11.1167 30,11.7237 30,12.3891C30,12.6109 29.9262,12.7743 29.7787,12.8911C29.6311,13.0078 29.4098,13.0545 29.127,13.0545H23.3238V11.677H27.9836L27.6885,11.9222C27.6885,11.4436 27.6148,11.035 27.4672,10.7198C27.3197,10.393 27.1107,10.1479 26.8279,9.9844C26.5451,9.8093 26.2008,9.7276 25.7951,9.7276C25.3402,9.7276 24.9467,9.8327 24.627,10.0311C24.3074,10.2296 24.0615,10.5214 23.8893,10.9066C23.7172,11.2918 23.6311,11.7471 23.6311,12.2724V12.4125C23.6311,13.2996 23.8525,13.965 24.2828,14.3852C24.7131,14.8054 25.377,15.0156 26.25,15.0156C26.5451,15.0156 26.8893,14.9805 27.2582,14.9105C27.6393,14.8405 27.9959,14.7237 28.3402,14.572C28.6352,14.4436 28.8934,14.3969 29.1025,14.4436C29.3115,14.4903 29.4836,14.5837 29.6066,14.7354C29.7418,14.8872 29.8033,15.0506 29.8156,15.2607C29.8156,15.4591 29.7787,15.6576 29.6803,15.856C29.582,16.0545 29.3975,16.2062 29.1516,16.3346C28.7213,16.5681 28.2418,16.7315 27.7008,16.8366C27.1721,16.93 26.668,16.9883 26.1762,16.9883V17Z" fill="#005abe"   />
</svg>
