<svg xmlns="http://www.w3.org/2000/svg" viewBox="0 0 12.0 12.0">
  <path d="M2.099,0.597C2.021,0.597 1.942,0.613 1.87,0.643C1.797,0.673 1.731,0.717 1.675,0.773C1.619,0.829 1.575,0.895 1.545,0.968C1.515,1.041 1.499,1.119 1.499,1.197V10.797C1.499,11.097 1.799,11.397 2.099,11.397H7.499C7.799,11.397 8.099,11.097 8.099,10.797V7.797H8.399C8.699,7.797 8.699,8.097 8.699,8.097V9.297C8.699,9.897 8.999,10.198 9.599,10.198C10.199,10.198 10.499,9.897 10.499,9.297V5.997C10.499,5.397 9.299,4.797 9.299,4.197V2.397H8.699L8.099,1.797V1.197C8.1,1.119 8.084,1.041 8.054,0.968C8.024,0.895 7.98,0.829 7.924,0.773C7.868,0.717 7.802,0.673 7.729,0.643C7.656,0.613 7.578,0.597 7.499,0.597H2.099ZM2.699,1.797H6.899V4.197H2.699V1.797ZM8.099,3.597H8.699V4.497C8.699,5.097 9.899,5.697 9.899,6.297V9.297C9.899,9.597 9.599,9.597 9.599,9.597C9.599,9.597 9.299,9.597 9.299,9.297V7.797C9.299,7.497 8.999,7.197 8.699,7.197H8.099V3.597Z" fill="#0064ff"   />
</svg>
