<svg xmlns="http://www.w3.org/2000/svg" viewBox="0 0 25.0 24.0">
  <path d="M18.344,8.5C18.735,8.89 18.735,9.523 18.344,9.914L11.637,16.51C11.45,16.698 11.195,16.803 10.93,16.803C10.665,16.804 10.41,16.698 10.222,16.511L7.43,13.915C7.039,13.524 7.039,12.891 7.43,12.5C7.82,12.11 8.453,12.11 8.844,12.5L10.929,14.389L16.93,8.5C17.32,8.11 17.953,8.109 18.344,8.5Z" fill="#dfffe2"   />
  <path d="M12.93,3C7.959,3 3.93,7.029 3.93,12C3.93,16.971 7.959,21 12.93,21C17.9,21 21.93,16.971 21.93,12C21.93,7.029 17.9,3 12.93,3ZM1.93,12C1.93,5.925 6.855,1 12.93,1C19.005,1 23.93,5.925 23.93,12C23.93,18.075 19.005,23 12.93,23C6.855,23 1.93,18.075 1.93,12Z" fill="#dfffe2"   />
</svg>
