<svg xmlns="http://www.w3.org/2000/svg" viewBox="0 0 20.0 20.0">
  <path d="M15,5.001H13.333C13.333,3.16 11.841,1.668 10,1.668C8.158,1.668 6.666,3.16 6.666,5.001H5C4.083,5.001 3.333,5.751 3.333,6.668V16.668C3.333,17.585 4.083,18.335 5,18.335H15C15.916,18.335 16.666,17.585 16.666,16.668V6.668C16.666,5.751 15.916,5.001 15,5.001ZM10,3.335C10.916,3.335 11.666,4.085 11.666,5.001H8.333C8.333,4.085 9.083,3.335 10,3.335ZM15,16.668H5V6.668H6.666V8.335C6.666,8.793 7.041,9.168 7.5,9.168C7.958,9.168 8.333,8.793 8.333,8.335V6.668H11.666V8.335C11.666,8.793 12.041,9.168 12.5,9.168C12.958,9.168 13.333,8.793 13.333,8.335V6.668H15V16.668Z" fill="#282828"   />
</svg>
