<svg xmlns="http://www.w3.org/2000/svg" viewBox="0 0 17.0 16.0">
  <path d="M4.5,4m-1,0a1,1 0,1 1,2 0a1,1 0,1 1,-2 0" fill="#335ab9"   />
  <path d="M12.5,4m-1,0a1,1 0,1 1,2 0a1,1 0,1 1,-2 0" fill="#335ab9"   />
  <path d="M4.5,12m-1,0a1,1 0,1 1,2 0a1,1 0,1 1,-2 0" fill="#335ab9"   />
  <path d="M7,2C7,1.758 6.829,1.556 6.601,1.51L6.5,1.5H2.5C2.224,1.5 2,1.724 2,2V6L2.01,6.101C2.056,6.329 2.258,6.5 2.5,6.5H6.5C6.776,6.5 7,6.276 7,6V2ZM8,6C8,6.828 7.328,7.5 6.5,7.5H2.5C1.723,7.5 1.085,6.91 1.008,6.153L1,6V2C1,1.172 1.672,0.5 2.5,0.5H6.5L6.653,0.508C7.41,0.585 8,1.223 8,2V6Z" fill="#335ab9"   />
  <path d="M15,2C15,1.758 14.829,1.556 14.601,1.51L14.5,1.5H10.5C10.224,1.5 10,1.724 10,2V6L10.01,6.101C10.056,6.329 10.258,6.5 10.5,6.5H14.5C14.776,6.5 15,6.276 15,6V2ZM16,6C16,6.828 15.328,7.5 14.5,7.5H10.5C9.723,7.5 9.085,6.91 9.008,6.153L9,6V2C9,1.172 9.672,0.5 10.5,0.5H14.5L14.653,0.508C15.41,0.585 16,1.223 16,2V6Z" fill="#335ab9"   />
  <path d="M7,10C7,9.758 6.829,9.556 6.601,9.51L6.5,9.5H2.5C2.224,9.5 2,9.724 2,10V14L2.01,14.101C2.056,14.329 2.258,14.5 2.5,14.5H6.5C6.776,14.5 7,14.276 7,14V10ZM8,14C8,14.828 7.328,15.5 6.5,15.5H2.5C1.723,15.5 1.085,14.91 1.008,14.153L1,14V10C1,9.172 1.672,8.5 2.5,8.5H6.5L6.653,8.508C7.41,8.585 8,9.223 8,10V14Z" fill="#335ab9"   />
  <path d="M10,14V11C10,10.724 10.224,10.5 10.5,10.5C10.776,10.5 11,10.724 11,11V14C11,14.276 10.776,14.5 10.5,14.5C10.224,14.5 10,14.276 10,14Z" fill="#335ab9"   />
  <path d="M14,13V10C14,9.724 14.224,9.5 14.5,9.5C14.776,9.5 15,9.724 15,10V13C15,13.276 14.776,13.5 14.5,13.5C14.224,13.5 14,13.276 14,13Z" fill="#335ab9"   />
  <path d="M12,14V10C12,9.724 11.776,9.5 11.5,9.5H9.5C9.224,9.5 9,9.276 9,9C9,8.724 9.224,8.5 9.5,8.5H11.5C12.328,8.5 13,9.172 13,10V14C13,14.276 13.224,14.5 13.5,14.5H15.5C15.776,14.5 16,14.724 16,15C16,15.276 15.776,15.5 15.5,15.5H13.5C12.672,15.5 12,14.828 12,14Z" fill="#335ab9"   />
</svg>
