<svg xmlns="http://www.w3.org/2000/svg" viewBox="0 0 25.0 24.0">
  <path d="M12.93,3C7.959,3 3.93,7.029 3.93,12C3.93,16.971 7.959,21 12.93,21C17.9,21 21.93,16.971 21.93,12C21.93,7.029 17.9,3 12.93,3ZM1.93,12C1.93,5.925 6.855,1 12.93,1C19.005,1 23.93,5.925 23.93,12C23.93,18.075 19.005,23 12.93,23C6.855,23 1.93,18.075 1.93,12Z" fill="#ffe2e0"   />
  <path d="M16.637,8.293C17.027,8.683 17.027,9.317 16.637,9.707L10.637,15.707C10.246,16.098 9.613,16.098 9.223,15.707C8.832,15.317 8.832,14.683 9.223,14.293L15.223,8.293C15.613,7.902 16.246,7.902 16.637,8.293Z" fill="#ffe2e0"   />
  <path d="M9.223,8.293C9.613,7.902 10.246,7.902 10.637,8.293L16.637,14.293C17.027,14.683 17.027,15.317 16.637,15.707C16.246,16.098 15.613,16.098 15.223,15.707L9.223,9.707C8.832,9.317 8.832,8.683 9.223,8.293Z" fill="#ffe2e0"   />
</svg>
