<svg xmlns="http://www.w3.org/2000/svg" viewBox="0 0 21.0 20.0">
  <path d="M8,15.833C8.92,15.833 9.667,16.58 9.667,17.5C9.667,18.42 8.92,19.167 8,19.167C7.08,19.167 6.333,18.42 6.333,17.5C6.333,16.58 7.08,15.833 8,15.833ZM17.167,15.833C18.087,15.833 18.833,16.58 18.833,17.5C18.833,18.42 18.087,19.167 17.167,19.167C16.247,19.167 15.5,18.42 15.5,17.5C15.5,16.58 16.247,15.833 17.167,15.833ZM4.667,0C5.064,0 5.405,0.281 5.483,0.67L6.184,4.167H19.667C19.915,4.167 20.15,4.278 20.309,4.469C20.467,4.66 20.532,4.912 20.485,5.156L19.15,12.154C19.036,12.729 18.723,13.246 18.267,13.614C17.812,13.98 17.243,14.176 16.659,14.167H8.574C7.991,14.176 7.422,13.98 6.967,13.614C6.51,13.247 6.197,12.729 6.083,12.154L4.69,5.199C4.685,5.176 4.68,5.153 4.677,5.129L3.983,1.667H1.333C0.873,1.667 0.5,1.293 0.5,0.833C0.5,0.373 0.873,0 1.333,0H4.667ZM7.718,11.829C7.756,12.021 7.859,12.194 8.012,12.316C8.164,12.439 8.355,12.504 8.551,12.5H16.683C16.878,12.504 17.068,12.439 17.221,12.316C17.372,12.194 17.477,12.023 17.516,11.832L18.659,5.833H6.518L7.718,11.829Z" fill="#282828"   />
</svg>
