<svg xmlns="http://www.w3.org/2000/svg" viewBox="0 0 108.0 108.0">
  <path d="M220.69,19H78.4C62.65,19.02 47.56,25.3 36.42,36.44C25.28,47.58 19.02,62.69 19,78.45V220.83C19.02,236.59 25.28,251.7 36.42,262.84C47.55,273.99 62.65,280.26 78.4,280.28H220.69C236.44,280.26 251.54,273.99 262.67,262.85C273.81,251.7 280.07,236.59 280.09,220.83V78.45C280.07,62.69 273.81,47.58 262.67,36.44C251.54,25.29 236.44,19.02 220.69,19" fill="#ffffff"   />
  <path d="M221.13,29.14H77.97C65.02,29.16 52.61,34.31 43.46,43.47C34.31,52.63 29.15,65.05 29.13,78V221.25C29.15,234.21 34.31,246.62 43.46,255.78C52.61,264.94 65.02,270.1 77.97,270.11H221.13C234.08,270.1 246.49,264.95 255.65,255.79C264.8,246.63 269.95,234.21 269.96,221.25V78C269.94,65.05 264.79,52.63 255.64,43.47C246.49,34.32 234.08,29.16 221.13,29.14" fill="#005abe"   />
  <path d="M122.82,127.55H110.68C108.72,127.6 106.81,128.17 105.14,129.2C103.47,130.23 102.1,131.69 101.18,133.42L102.39,126.99H87.57L80.98,163.95H95.82L99.92,140.55H115.9C115.9,140.55 113.86,152.14 112.95,157.33C112.04,162.52 115.56,163.78 117.32,163.78H125.09L130.14,135.03C130.1,133.09 129.33,131.23 127.97,129.84C126.61,128.45 124.77,127.63 122.83,127.54" fill="#ffffff"   />
  <path d="M76.86,126.97L74.08,142.84L85.36,126.97H76.86Z" fill="#ffffff"   />
  <path d="M94.47,69.08H44.8L42.64,81.33H59.98L53.03,120.79H67.98L74.97,81.33H92.3L94.47,69.08Z" fill="#ffffff"   />
  <path d="M83.78,120.8C82.84,120.83 81.91,120.64 81.06,120.26C80.2,119.87 79.45,119.29 78.86,118.57C78.26,117.85 77.84,117 77.62,116.08C77.41,115.17 77.4,114.22 77.61,113.31L81.43,91.69C81.84,89.64 82.93,87.79 84.53,86.43C86.12,85.07 88.13,84.29 90.22,84.21H114.56C115.5,84.17 116.43,84.36 117.28,84.75C118.14,85.13 118.89,85.71 119.48,86.43C120.08,87.16 120.5,88.01 120.71,88.92C120.92,89.83 120.92,90.78 120.71,91.69L116.91,113.31C116.5,115.36 115.4,117.22 113.81,118.58C112.21,119.94 110.2,120.72 108.11,120.8H83.78ZM104.74,108.68L106.92,96.35H93.61L91.45,108.68H104.74Z" fill="#ffffff"   />
  <path d="M181.75,108.69L183.94,96.35H203.21L205.35,84.23H180.55C178.46,84.31 176.45,85.09 174.85,86.45C173.26,87.81 172.16,89.66 171.74,91.72L167.93,113.33C167.72,114.25 167.73,115.2 167.94,116.11C168.16,117.02 168.58,117.87 169.18,118.6C169.78,119.32 170.53,119.9 171.38,120.28C172.24,120.67 173.17,120.85 174.11,120.82H198.22L200.34,108.71L181.75,108.69Z" fill="#ffffff"   />
  <path d="M151.43,108.69H135.13L139.44,84.22H126.44L121.33,113.31C121.12,114.22 121.12,115.17 121.33,116.08C121.55,117 121.97,117.85 122.56,118.57C123.16,119.29 123.91,119.87 124.76,120.26C125.61,120.64 126.54,120.83 127.48,120.8H140.16C142.16,120.67 144.1,120.1 145.86,119.13C147.61,118.16 149.13,116.81 150.29,115.18C150.29,115.18 151.74,119.42 153.83,120.35C156.59,121 159.43,121.25 162.26,121.09L168.77,84.2H155.77L151.43,108.69Z" fill="#ffffff"   />
  <path d="M245.16,84.39H233.03C231.22,84.46 229.47,85.05 227.99,86.09C226.51,87.13 225.36,88.58 224.68,90.26L228.17,70.39H214.5L205.62,120.8H219.31L223.42,97.4H238.25C238.25,97.4 236.21,108.98 235.3,114.18C234.39,119.38 237.92,120.63 239.63,120.63H246.26L251.32,91.88C251.53,90.97 251.53,90.02 251.31,89.11C251.1,88.19 250.67,87.34 250.08,86.62C249.48,85.9 248.73,85.32 247.88,84.93C247.02,84.55 246.09,84.36 245.16,84.39" fill="#ffffff"   />
  <path d="M225.27,162.65L229.18,140.6H207.22L203.32,162.65H225.27ZM196.41,176.23C195.16,176.27 193.9,176.02 192.76,175.5C191.61,174.98 190.6,174.2 189.8,173.23C189,172.25 188.43,171.11 188.14,169.88C187.85,168.66 187.84,167.38 188.12,166.15L193.25,137.1C193.81,134.33 195.28,131.83 197.43,130C199.58,128.17 202.29,127.12 205.11,127.02H236.08C237.34,126.98 238.59,127.23 239.74,127.75C240.88,128.27 241.9,129.05 242.7,130.02C243.5,131 244.06,132.14 244.35,133.37C244.64,134.6 244.65,135.87 244.37,137.1L239.24,166.15C238.68,168.91 237.21,171.41 235.06,173.24C232.92,175.07 230.22,176.12 227.4,176.23H196.41Z" fill="#ffffff"   />
  <path d="M166.4,162.65H144.43L148.32,140.59H183.94L186.28,127.01H146.21C143.39,127.12 140.69,128.17 138.54,130C136.4,131.83 134.93,134.33 134.37,137.1L129.24,166.14C128.96,167.37 128.97,168.65 129.26,169.87C129.55,171.1 130.11,172.24 130.91,173.22C131.71,174.19 132.72,174.97 133.87,175.49C135.02,176.01 136.27,176.26 137.52,176.22H168.53C171.35,176.11 174.05,175.06 176.2,173.23C178.35,171.4 179.82,168.91 180.38,166.14L183.51,148.31H168.93L166.4,162.65Z" fill="#ffffff"   />
  <path d="M140.93,194.09L121.57,234.01H109.3L107.84,209.85L96.12,234.01H83.77L81.41,194.09H90.16L91.69,225.4L106.74,194.09H115.62L117.15,225.4L132.2,194.09H140.93Z" fill="#ffdc00"   />
  <path d="M177.48,234.01H168.94L177.4,194.09H185.94L177.48,234.01Z" fill="#ffdc00"   />
  <path d="M191.49,234.01H182.96L191.42,194.09H199.96L191.49,234.01Z" fill="#ffdc00"   />
  <path d="M250.46,234.02H243.59C241.33,234.17 239.06,233.85 236.93,233.08C236.28,232.7 235.76,232.14 235.42,231.47C235.09,230.79 234.96,230.04 235.06,229.29C235.08,228.03 235.25,226.77 235.54,225.54L242.2,194.11H250.74L248.59,204.04H256.84L255.25,211.26H247.13L244.7,222.64C244.53,223.39 244.41,224.16 244.36,224.93C244.32,225.24 244.37,225.55 244.51,225.82C244.65,226.1 244.88,226.32 245.15,226.46C246.2,226.76 247.29,226.87 248.38,226.81H251.99L250.46,234.02Z" fill="#ffdc00"   />
  <path d="M68.59,215.41H53.4C53.54,214.65 53.76,213.9 54.06,213.19C54.26,212.68 54.6,212.23 55.04,211.9C55.49,211.57 56.01,211.37 56.56,211.32C57.33,211.22 58.11,211.17 58.89,211.18H65.69C67.9,211.18 69.01,211.87 69.01,213.26C69.01,213.4 68.88,214.12 68.62,215.41L68.59,215.41ZM76.11,204.93C73.98,204.13 71.71,203.8 69.45,203.96H57.23C54.42,203.77 51.62,204.47 49.22,205.95C47.2,207.59 45.87,209.93 45.51,212.51L42.8,225.49C42.62,226.29 42.48,226.99 42.4,227.61C42.32,228.17 42.27,228.74 42.27,229.31C42.23,230.08 42.37,230.85 42.66,231.57C42.97,232.17 43.45,232.67 44.05,232.99C44.87,233.41 45.77,233.67 46.69,233.75C48.07,233.9 49.46,233.97 50.85,233.96H71.59L73.12,226.8H55.62C54.53,226.87 53.44,226.73 52.4,226.4C52.12,226.25 51.9,226.02 51.76,225.74C51.62,225.46 51.56,225.15 51.6,224.84C51.63,224.09 51.72,223.35 51.88,222.62V222.6H55.49V222.62H75.32L77.48,212.48C77.77,211.23 77.93,209.95 77.96,208.66C78.05,207.92 77.92,207.17 77.58,206.51C77.25,205.84 76.73,205.29 76.09,204.91" fill="#ffdc00"   />
  <path d="M143.29,226.79C142.04,226.79 141.41,226.26 141.41,225.2C141.42,224.87 141.49,224.54 141.62,224.24C141.75,223.93 141.94,223.66 142.18,223.43C142.44,223.16 142.75,222.96 143.1,222.82C143.45,222.68 143.82,222.62 144.19,222.63H153.41V222.61H156.99L156.1,226.8L143.29,226.79ZM167.74,206.38C167.42,205.76 166.91,205.26 166.28,204.96C165.45,204.57 164.56,204.32 163.65,204.23C162.3,204.08 160.95,204.01 159.59,204.02H138.91L137.39,211.24H154.88C155.97,211.17 157.06,211.29 158.11,211.59C158.38,211.73 158.6,211.95 158.75,212.23C158.89,212.5 158.94,212.81 158.9,213.12C158.85,213.88 158.73,214.65 158.56,215.4H151.72H145.03C143.37,215.38 141.71,215.48 140.07,215.71C138.89,215.86 137.77,216.28 136.77,216.92C135.85,217.57 135.13,218.46 134.69,219.49C134.09,220.9 133.62,222.37 133.3,223.87L132.96,225.54C132.66,226.77 132.5,228.02 132.47,229.29C132.44,230.1 132.59,230.9 132.92,231.65C133.24,232.27 133.75,232.77 134.38,233.07C135.21,233.46 136.1,233.71 137.02,233.8C138.36,233.95 139.72,234.02 141.08,234.01H163.14L167.72,212.49C168.01,211.26 168.18,210 168.2,208.74C168.23,207.93 168.08,207.12 167.75,206.38" fill="#ffdc00"   />
  <path d="M224.44,215.41H209.25C209.38,214.65 209.6,213.91 209.9,213.2C210.1,212.68 210.44,212.24 210.88,211.9C211.32,211.57 211.85,211.37 212.4,211.32C213.17,211.22 213.95,211.17 214.72,211.18H221.52C223.74,211.18 224.85,211.88 224.85,213.26C224.85,213.4 224.71,214.12 224.44,215.42V215.41ZM231.93,204.93C229.81,204.14 227.54,203.8 225.27,203.96H213.06C210.25,203.78 207.45,204.47 205.05,205.95C203.03,207.59 201.71,209.94 201.34,212.51L198.63,225.5C198.45,226.29 198.31,227 198.23,227.61C198.15,228.18 198.1,228.74 198.09,229.31C198.06,230.09 198.2,230.85 198.49,231.57C198.8,232.18 199.28,232.67 199.88,232.99C200.7,233.41 201.6,233.67 202.52,233.75C203.9,233.91 205.29,233.98 206.68,233.96H227.42L228.95,226.8H211.45C210.36,226.87 209.27,226.74 208.23,226.4C207.95,226.25 207.73,226.02 207.59,225.74C207.44,225.47 207.39,225.15 207.43,224.84C207.45,224.09 207.55,223.35 207.71,222.62V222.6H211.32V222.62H231.16L233.31,212.48C233.6,211.23 233.77,209.95 233.79,208.66C233.88,207.93 233.75,207.18 233.42,206.51C233.08,205.85 232.56,205.29 231.92,204.92" fill="#ffdc00"   />
  <path d="M288.05,29.95H284.49V40.42H283.63V29.95H280.08V29.15H288.03L288.05,29.95Z" fill="#ffffff"   />
  <path d="M300,40.42H299.14V30.4L294.97,37.33H294.83L290.66,30.4V40.42H289.8V29.14H290.87L294.89,35.81L298.91,29.14H300L300,40.42Z" fill="#ffffff"   />
</svg>
